<?xml version="1.0" encoding="UTF-8" standalone="no"?>
<svg
   width="1587.402"
   height="1122.52"
   viewBox="-60 -248.5 420 297"
   version="1.1"
   id="svg372"
   sodipodi:docname="looped_square_mine_2.svg"
   inkscape:version="1.2.2 (b0a84865, 2022-12-01)"
   xmlns:inkscape="http://www.inkscape.org/namespaces/inkscape"
   xmlns:sodipodi="http://sodipodi.sourceforge.net/DTD/sodipodi-0.dtd"
   xmlns="http://www.w3.org/2000/svg"
   xmlns:svg="http://www.w3.org/2000/svg">
  <defs
     id="defs376" />
  <sodipodi:namedview
     id="namedview374"
     pagecolor="#ffffff"
     bordercolor="#000000"
     borderopacity="0.25"
     inkscape:showpageshadow="2"
     inkscape:pageopacity="0.0"
     inkscape:pagecheckerboard="0"
     inkscape:deskcolor="#d1d1d1"
     showgrid="false"
     inkscape:zoom="0.87861122"
     inkscape:cx="759.72169"
     inkscape:cy="633.38595"
     inkscape:window-width="2056"
     inkscape:window-height="1257"
     inkscape:window-x="0"
     inkscape:window-y="44"
     inkscape:window-maximized="0"
     inkscape:current-layer="svg372" />
  <path
     d="m -39.999211,-65.000169 c -19.3298,0 -35,15.6702 -35,35 0,19.3298 15.6702,34.9999998 34.999742,34.9997548 l 79.999821,9.24e-5 c 19.32988,3.374e-4 35.00008,-15.6698622 35.00008,-34.9996622 0,-19.3298 -15.6702,-35 -35,-35 -19.3298,0 -35.0000002,15.6702 -35.000108,34.999595 l 1.372e-4,79.999948 c 2.436e-4,19.330154 15.6704438,35.000354 35.0002438,35.000354 19.3298,0 35,-15.6702 35,-35 0,-19.3298 -15.6702,-35 -35.000353,-34.999956 l -80.000588,-1.11e-4 c -19.330036,-1.55e-4 -35.000236,15.670045 -35.000236,34.999845 0,19.3298 15.6702,35 35,35 19.329801,0 35.0000005,-15.6702 35.0003702,-35.000231 l 6.303e-4,-79.999931 c 2.606e-4,-19.329498 -15.6699395,-34.999698 -34.9997395,-34.999698 z"
     style="fill:none;stroke:#0049ff;stroke-width:0.05mm;stroke-opacity:1"
     transform="matrix(0.70710678,0.70710678,0.70710678,-0.70710678,142.92903,-92.929213)"
     id="path332"
     sodipodi:nodetypes="ssccssccssccssccs"
     inkscape:label="Outer Outer" />
  <path
     d="m 40,15 -80.000244,6.3e-5 c -16.568644,6.3e-5 -30.000244,13.431663 -30.000244,30.000063 0,16.568401 13.4316,30.000001 30,30.000001 16.5684,0 30,-13.4316 29.995101,-30.044544 l 0.0052,-80.14138 c -4.16e-4,-16.382693 -13.432016,-29.814293 -30.000416,-29.814293 -16.5684,0 -30,13.4316 -30,30 0,16.5684 13.4316,29.9999999 30.000307,30.0000935 l 80.000283,2.532e-4 c 16.568386,1.596e-4 29.999986,-13.4314407 29.999986,-29.9998407 0,-16.5684 -13.4316,-30 -30,-30 -16.5684,0 -30.0000004,13.4316 -29.999921,29.942014 l 9.6e-5,80.000024 c 1.8e-5,16.626412 13.431617,30.058012 30.000018,30.058012 16.568401,0 30.000001,-13.4316 30.000001,-30 0,-16.5684 -13.4316,-30 -30.000001,-30"
     style="fill:none;stroke:#0036ff;stroke-width:0.05mm;stroke-opacity:1"
     transform="matrix(0.70710678,0.70710678,0.70710678,-0.70710678,146.46441,-96.464369)"
     id="path316"
     sodipodi:nodetypes="ccssccssccssccssc"
     inkscape:label="Outer Middle" />
  <path
     d="m 25,0 c 0,-13.807 -11.193,-25 -25,-25 -13.807,0 -25,11.193 -25,25 0,13.807 11.193,25 24.999943671448,24.999865 L 79.999752,24.999785 C 93.806616,24.999841 104.99962,13.806841 104.99962,-1.5884126e-4 104.99962,-13.807159 93.806616,-25.000158 79.999616,-25.000158 c -13.807,0 -25,11.192999 -24.999864,24.99994315874 L 54.999684,79.999945 c -2.04e-4,13.807217 11.192796,25.000215 24.999796,25.000215 13.807,0 25,-11.192998 25,-24.999998 0,-13.807 -11.193,-25 -24.999797,-25.000218 l -79.9998086571,7.7e-5 C -13.807137,55.000315 -25.00014,66.193315 -25.00014,80.000315 c 0,13.807 11.193003,24.999995 25.0000033429,24.999995 C 13.806863,105.00031 24.999863,93.807315 24.999874,80.000018 l 1.1e-5,-80.00029784126"
     style="fill:none;stroke:#0051ff;stroke-width:0.05mm;stroke-opacity:1"
     transform="matrix(0.70710678,0.70710678,0.70710678,-0.70710678,93.431518,-99.999638)"
     id="path298"
     sodipodi:nodetypes="cssccssccssccsscc"
     inkscape:label="Outer Inner" />
  <path
     d="m 120.00003,59.834324 c 2e-5,-8.449877 -6.71578,-15.165677 -14.99998,-15.165677 -8.284198,0 -14.999998,6.7158 -14.999998,15 0,8.2842 6.7158,15 15.284408,15.009091 l 80.43198,-0.01884 c 7.56778,0.0091 14.28358,-6.70673 14.28358,-14.99093 0,-8.2842 -6.7158,-15 -15,-15 -8.2842,0 -15,6.7158 -14.99974,15.000442 l -5e-5,80.00034 c -3e-4,8.2841 6.7155,14.9999 14.9997,14.9999 8.2842,0 15,-6.7158 15,-15 0,-8.2842 -6.7158,-15 -14.78394,-15.00931 l -80.43203,0.0185 c -8.068269,-0.009 -14.784069,6.70657 -14.784069,14.99077 0,8.2842 6.7158,15 14.999999,15 8.2842,0 15,-6.7158 15.00006,-14.83429 z"
     style="fill:none;stroke:#001bff;stroke-width:0.05mm;stroke-opacity:1"
     transform="matrix(0.70710678,0.70710678,0.70710678,-0.70710678,-23.007003,-132.05418)"
     id="path366"
     sodipodi:nodetypes="cssccssccssccsscc"
     inkscape:label="Inner Outer" />
  <path
     d="m 190,130 -80.43199,0.0184 c -5.09079,-0.0186 -9.56799,4.45857 -9.56799,9.98137 0,5.5228 4.4772,10 10,10 5.5228,0 10,-4.4772 9.99999,-9.99988 l -6e-5,-79.999895 c -5e-5,-5.522824 -4.47725,-10.000024 -10.00005,-10.000024 -5.5228,0 -9.999999,4.4772 -9.999999,10 0,5.5228 4.477199,10 10.000049,10.000024 l 80.00003,-2.8e-5 c 5.52278,-5.2e-5 9.99998,-4.477252 9.99998,-10.000052 0,-5.5228 -4.4772,-10 -10,-10 -5.5228,0 -10,4.4772 -9.99998,10.000052 l -6e-5,79.999953 c -8e-5,5.52271 4.47712,9.99991 9.99992,9.99991 5.5228,0 10,-4.4772 10,-10 0,-5.5228 -4.4772,-10 -10,-10"
     style="fill:none;stroke:#001bff;stroke-width:0.05mm;stroke-opacity:1"
     transform="matrix(0.70710678,0.70710678,0.70710678,-0.70710678,-26.776695,-135.35534)"
     id="path344"
     sodipodi:nodetypes="ccssccssccssccssc"
     inkscape:label="Inner Middle" />
  <path
     d="M 0,25 C 13.807,25 25,13.807 25,0 25,-13.807 13.807,-25 -0.00144142,-24.999922 L -400.002,-25.000005 c -13.80612,-1.62e-4 -24.99912,11.192838 -24.99912,24.99983840477 0,13.80699959523 11.193,24.99999959523 25,24.99999959523 13.807,0 25,-11.193 24.99912,-24.9998383215076 L -375.03695,-401.3353 c -0.7361,-13.78777 -12.51064,-24.36731 -26.29796,-23.63027 -13.78731,0.73704 -24.36685,12.51158 -23.62981,26.2989 0.73704,13.78731 12.51158,24.36685 26.29787,23.63082 l 398.66548818,0.0356 C 13.807159,-375.0007 25.000159,-386.1937 25.000159,-400.00069 c 0,-13.807 -11.193,-25 -24.99999979517,-25 -13.80699920483,0 -24.99999920483,11.193 -25.00152220483,25.00042 l -8e-5,400.000346721084 C -25,13.807 -13.807,25 0,25 Z"
     style="fill:none;stroke:#0004ff;stroke-width:0.25mm;stroke-opacity:1"
     transform="matrix(0.14142136,-0.14142136,-0.14142136,-0.14142136,150.00043,-156.56893)"
     id="path348"
     sodipodi:nodetypes="ssccssccssccssccs"
     inkscape:label="Inner Inner" />
  <path
     style="display:inline;fill:#ff2a2a;stroke:#dd1a1a;stroke-width:0.264583;stroke-opacity:1"
     d="m 174.88767,-124.73227 -49.38664,49.988918 v 0"
     id="path364"
     inkscape:label="Diagonal" />
  <path
     style="fill:#ff2a2a;stroke:#dd1a1a;stroke-width:0.264583;stroke-opacity:1"
     d="m 124.89876,-124.43113 49.98891,50.290054 v 0"
     id="path1460"
     inkscape:label="Diagonal" />
</svg>
