<?xml version="1.0" encoding="UTF-8" standalone="no"?>
<svg
   width="1123.0333"
   height="865.3537"
   viewBox="-60 -248.5 297.13583 228.9581"
   version="1.1"
   id="svg372"
   sodipodi:docname="looped_square_mine_2.svg"
   inkscape:version="1.2.2 (b0a84865, 2022-12-01)"
   xmlns:inkscape="http://www.inkscape.org/namespaces/inkscape"
   xmlns:sodipodi="http://sodipodi.sourceforge.net/DTD/sodipodi-0.dtd"
   xmlns="http://www.w3.org/2000/svg"
   xmlns:svg="http://www.w3.org/2000/svg">
  <defs
     id="defs376" />
  <sodipodi:namedview
     id="namedview374"
     pagecolor="#ffffff"
     bordercolor="#000000"
     borderopacity="0.25"
     inkscape:showpageshadow="2"
     inkscape:pageopacity="0.0"
     inkscape:pagecheckerboard="0"
     inkscape:deskcolor="#d1d1d1"
     showgrid="false"
     inkscape:zoom="0.87861122"
     inkscape:cx="831.99484"
     inkscape:cy="632.24779"
     inkscape:window-width="2056"
     inkscape:window-height="1257"
     inkscape:window-x="0"
     inkscape:window-y="44"
     inkscape:window-maximized="0"
     inkscape:current-layer="svg372" />
  <g
     id="elements"
     transform="matrix(0.08390044,0,0,0.08390044,217.1675,-249.0873)">
    <path
       style="fill:#000000"
       d="m 7,7 h 7 v 7 H 7 Z m 7,0 h 7 v 7 h -7 z m 7,0 h 7 v 7 h -7 z m 7,0 h 7 v 7 h -7 z m 7,0 h 7 v 7 h -7 z m 7,0 h 7 v 7 h -7 z m 7,0 h 7 v 7 h -7 z m 28,0 h 7 v 7 h -7 z m 14,0 h 7 v 7 h -7 z m 7,0 h 7 v 7 h -7 z m 14,0 h 7 v 7 h -7 z m 35,0 h 7 v 7 h -7 z m 7,0 h 7 v 7 h -7 z m 14,0 h 7 v 7 h -7 z m 7,0 h 7 v 7 h -7 z m 14,0 h 7 v 7 h -7 z m 7,0 h 7 v 7 h -7 z m 7,0 h 7 v 7 h -7 z m 7,0 h 7 v 7 h -7 z m 7,0 h 7 v 7 h -7 z m 7,0 h 7 v 7 h -7 z m 7,0 h 7 v 7 h -7 z M 7,14 h 7 v 7 H 7 Z m 42,0 h 7 v 7 h -7 z m 14,0 h 7 v 7 h -7 z m 14,0 h 7 v 7 h -7 z m 21,0 h 7 v 7 h -7 z m 7,0 h 7 v 7 h -7 z m 7,0 h 7 v 7 h -7 z m 21,0 h 7 v 7 h -7 z m 7,0 h 7 v 7 h -7 z m 7,0 h 7 v 7 h -7 z m 7,0 h 7 v 7 h -7 z m 35,0 h 7 v 7 h -7 z m 42,0 h 7 v 7 h -7 z M 7,21 h 7 v 7 H 7 Z m 14,0 h 7 v 7 h -7 z m 7,0 h 7 v 7 h -7 z m 7,0 h 7 v 7 h -7 z m 14,0 h 7 v 7 h -7 z m 42,0 h 7 v 7 h -7 z m 7,0 h 7 v 7 h -7 z m 14,0 h 7 v 7 h -7 z m 21,0 h 7 v 7 h -7 z m 7,0 h 7 v 7 h -7 z m 14,0 h 7 v 7 h -7 z m 14,0 h 7 v 7 h -7 z m 21,0 h 7 v 7 h -7 z m 14,0 h 7 v 7 h -7 z m 7,0 h 7 v 7 h -7 z m 7,0 h 7 v 7 h -7 z m 14,0 h 7 v 7 h -7 z M 7,28 h 7 v 7 H 7 Z m 14,0 h 7 v 7 h -7 z m 7,0 h 7 v 7 h -7 z m 7,0 h 7 v 7 h -7 z m 14,0 h 7 v 7 h -7 z m 14,0 h 7 v 7 h -7 z m 7,0 h 7 v 7 h -7 z m 7,0 h 7 v 7 h -7 z m 14,0 h 7 v 7 h -7 z m 14,0 h 7 v 7 h -7 z m 7,0 h 7 v 7 h -7 z m 21,0 h 7 v 7 h -7 z m 21,0 h 7 v 7 h -7 z m 7,0 h 7 v 7 h -7 z m 14,0 h 7 v 7 h -7 z m 14,0 h 7 v 7 h -7 z m 14,0 h 7 v 7 h -7 z m 7,0 h 7 v 7 h -7 z m 7,0 h 7 v 7 h -7 z m 14,0 h 7 v 7 h -7 z M 7,35 h 7 v 7 H 7 Z m 14,0 h 7 v 7 h -7 z m 7,0 h 7 v 7 h -7 z m 7,0 h 7 v 7 h -7 z m 14,0 h 7 v 7 h -7 z m 21,0 h 7 v 7 h -7 z m 42,0 h 7 v 7 h -7 z m 7,0 h 7 v 7 h -7 z m 7,0 h 7 v 7 h -7 z m 7,0 h 7 v 7 h -7 z m 35,0 h 7 v 7 h -7 z m 21,0 h 7 v 7 h -7 z m 14,0 h 7 v 7 h -7 z m 7,0 h 7 v 7 h -7 z m 7,0 h 7 v 7 h -7 z m 14,0 h 7 v 7 h -7 z M 7,42 h 7 v 7 H 7 Z m 42,0 h 7 v 7 h -7 z m 14,0 h 7 v 7 h -7 z m 7,0 h 7 v 7 h -7 z m 14,0 h 7 v 7 h -7 z m 7,0 h 7 v 7 h -7 z m 21,0 h 7 v 7 h -7 z m 21,0 h 7 v 7 h -7 z m 14,0 h 7 v 7 h -7 z m 7,0 h 7 v 7 h -7 z m 21,0 h 7 v 7 h -7 z m 14,0 h 7 v 7 h -7 z m 42,0 h 7 v 7 h -7 z M 7,49 h 7 v 7 H 7 Z m 7,0 h 7 v 7 h -7 z m 7,0 h 7 v 7 h -7 z m 7,0 h 7 v 7 h -7 z m 7,0 h 7 v 7 h -7 z m 7,0 h 7 v 7 h -7 z m 7,0 h 7 v 7 h -7 z m 14,0 h 7 v 7 h -7 z m 14,0 h 7 v 7 h -7 z m 14,0 h 7 v 7 h -7 z m 14,0 h 7 v 7 h -7 z m 14,0 h 7 v 7 h -7 z m 14,0 h 7 v 7 h -7 z m 14,0 h 7 v 7 h -7 z m 14,0 h 7 v 7 h -7 z m 14,0 h 7 v 7 h -7 z m 14,0 h 7 v 7 h -7 z m 7,0 h 7 v 7 h -7 z m 7,0 h 7 v 7 h -7 z m 7,0 h 7 v 7 h -7 z m 7,0 h 7 v 7 h -7 z m 7,0 h 7 v 7 h -7 z m 7,0 h 7 v 7 h -7 z M 70,56 h 7 v 7 h -7 z m 7,0 h 7 v 7 h -7 z m 7,0 h 7 v 7 h -7 z m 21,0 h 7 v 7 h -7 z m 7,0 h 7 v 7 h -7 z m 21,0 h 7 v 7 h -7 z m 21,0 h 7 v 7 h -7 z m 14,0 h 7 v 7 h -7 z M 7,63 h 7 v 7 H 7 Z m 7,0 h 7 v 7 h -7 z m 7,0 h 7 v 7 h -7 z m 7,0 h 7 v 7 h -7 z m 7,0 h 7 v 7 h -7 z m 14,0 h 7 v 7 h -7 z m 7,0 h 7 v 7 h -7 z m 7,0 h 7 v 7 h -7 z m 7,0 h 7 v 7 h -7 z m 14,0 h 7 v 7 h -7 z m 28,0 h 7 v 7 h -7 z m 7,0 h 7 v 7 h -7 z m 14,0 h 7 v 7 h -7 z m 28,0 h 7 v 7 h -7 z m 7,0 h 7 v 7 h -7 z m 7,0 h 7 v 7 h -7 z m 7,0 h 7 v 7 h -7 z m 14,0 h 7 v 7 h -7 z m 14,0 h 7 v 7 h -7 z m 14,0 h 7 v 7 h -7 z M 21,70 h 7 v 7 h -7 z m 7,0 h 7 v 7 h -7 z m 7,0 h 7 v 7 h -7 z m 42,0 h 7 v 7 h -7 z m 14,0 h 7 v 7 h -7 z m 7,0 h 7 v 7 h -7 z m 7,0 h 7 v 7 h -7 z m 7,0 h 7 v 7 h -7 z m 28,0 h 7 v 7 h -7 z m 7,0 h 7 v 7 h -7 z m 7,0 h 7 v 7 h -7 z m 14,0 h 7 v 7 h -7 z m 21,0 h 7 v 7 h -7 z m 21,0 h 7 v 7 h -7 z M 21,77 h 7 v 7 h -7 z m 28,0 h 7 v 7 h -7 z m 7,0 h 7 v 7 h -7 z m 7,0 h 7 v 7 h -7 z m 14,0 h 7 v 7 h -7 z m 21,0 h 7 v 7 h -7 z m 7,0 h 7 v 7 h -7 z m 7,0 h 7 v 7 h -7 z m 21,0 h 7 v 7 h -7 z m 14,0 h 7 v 7 h -7 z m 7,0 h 7 v 7 h -7 z m 28,0 h 7 v 7 h -7 z m 7,0 h 7 v 7 h -7 z m 21,0 h 7 v 7 h -7 z m 21,0 h 7 v 7 h -7 z M 14,84 h 7 v 7 h -7 z m 42,0 h 7 v 7 h -7 z m 7,0 h 7 v 7 h -7 z m 28,0 h 7 v 7 h -7 z m 7,0 h 7 v 7 h -7 z m 14,0 h 7 v 7 h -7 z m 7,0 h 7 v 7 h -7 z m 14,0 h 7 v 7 h -7 z m 7,0 h 7 v 7 h -7 z m 14,0 h 7 v 7 h -7 z m 7,0 h 7 v 7 h -7 z m 14,0 h 7 v 7 h -7 z m 21,0 h 7 v 7 h -7 z m 21,0 h 7 v 7 h -7 z M 14,91 h 7 v 7 h -7 z m 14,0 h 7 v 7 h -7 z m 14,0 h 7 v 7 h -7 z m 7,0 h 7 v 7 h -7 z m 21,0 h 7 v 7 h -7 z m 7,0 h 7 v 7 h -7 z m 14,0 h 7 v 7 h -7 z m 14,0 h 7 v 7 h -7 z m 56,0 h 7 v 7 h -7 z m 7,0 h 7 v 7 h -7 z m 7,0 h 7 v 7 h -7 z m 7,0 h 7 v 7 h -7 z m 14,0 h 7 v 7 h -7 z m 7,0 h 7 v 7 h -7 z m 28,0 h 7 v 7 h -7 z M 14,98 h 7 v 7 h -7 z m 14,0 h 7 v 7 h -7 z m 7,0 h 7 v 7 h -7 z m 21,0 h 7 v 7 h -7 z m 56,0 h 7 v 7 h -7 z m 7,0 h 7 v 7 h -7 z m 7,0 h 7 v 7 h -7 z m 21,0 h 7 v 7 h -7 z m 7,0 h 7 v 7 h -7 z m 14,0 h 7 v 7 h -7 z m 21,0 h 7 v 7 h -7 z m 28,0 h 7 v 7 h -7 z m 7,0 h 7 v 7 h -7 z m 7,0 h 7 v 7 h -7 z M 7,105 h 7 v 7 H 7 Z m 7,0 h 7 v 7 h -7 z m 21,0 h 7 v 7 h -7 z m 7,0 h 7 v 7 h -7 z m 7,0 h 7 v 7 h -7 z m 21,0 h 7 v 7 h -7 z m 14,0 h 7 v 7 h -7 z m 7,0 h 7 v 7 h -7 z m 21,0 h 7 v 7 h -7 z m 14,0 h 7 v 7 h -7 z m 7,0 h 7 v 7 h -7 z m 42,0 h 7 v 7 h -7 z m 7,0 h 7 v 7 h -7 z m 7,0 h 7 v 7 h -7 z m 14,0 h 7 v 7 h -7 z m 14,0 h 7 v 7 h -7 z m 14,0 h 7 v 7 h -7 z m -217,7 h 7 v 7 h -7 z m 21,0 h 7 v 7 h -7 z m 28,0 h 7 v 7 h -7 z m 7,0 h 7 v 7 h -7 z m 14,0 h 7 v 7 h -7 z m 21,0 h 7 v 7 h -7 z m 7,0 h 7 v 7 h -7 z m 7,0 h 7 v 7 h -7 z m 35,0 h 7 v 7 h -7 z m 7,0 h 7 v 7 h -7 z m 7,0 h 7 v 7 h -7 z m 7,0 h 7 v 7 h -7 z m 35,0 h 7 v 7 h -7 z m 7,0 h 7 v 7 h -7 z m 7,0 h 7 v 7 h -7 z m 7,0 h 7 v 7 h -7 z M 7,119 h 7 v 7 H 7 Z m 7,0 h 7 v 7 h -7 z m 7,0 h 7 v 7 h -7 z m 7,0 h 7 v 7 h -7 z m 7,0 h 7 v 7 h -7 z m 7,0 h 7 v 7 h -7 z m 7,0 h 7 v 7 h -7 z m 14,0 h 7 v 7 h -7 z m 7,0 h 7 v 7 h -7 z m 7,0 h 7 v 7 h -7 z m 7,0 h 7 v 7 h -7 z m 49,0 h 7 v 7 h -7 z m 28,0 h 7 v 7 h -7 z m 21,0 h 7 v 7 h -7 z m 28,0 h 7 v 7 h -7 z m 7,0 h 7 v 7 h -7 z m 7,0 h 7 v 7 h -7 z m 7,0 h 7 v 7 h -7 z M 7,126 h 7 v 7 H 7 Z m 7,0 h 7 v 7 h -7 z m 7,0 h 7 v 7 h -7 z m 21,0 h 7 v 7 h -7 z m 35,0 h 7 v 7 h -7 z m 14,0 h 7 v 7 h -7 z m 7,0 h 7 v 7 h -7 z m 7,0 h 7 v 7 h -7 z m 7,0 h 7 v 7 h -7 z m 14,0 h 7 v 7 h -7 z m 42,0 h 7 v 7 h -7 z m 21,0 h 7 v 7 h -7 z m 28,0 h 7 v 7 h -7 z m 14,0 h 7 v 7 h -7 z M 7,133 h 7 v 7 H 7 Z m 7,0 h 7 v 7 h -7 z m 14,0 h 7 v 7 h -7 z m 7,0 h 7 v 7 h -7 z m 14,0 h 7 v 7 h -7 z m 28,0 h 7 v 7 h -7 z m 21,0 h 7 v 7 h -7 z m 7,0 h 7 v 7 h -7 z m 7,0 h 7 v 7 h -7 z m 77,0 h 7 v 7 h -7 z m 7,0 h 7 v 7 h -7 z m 14,0 h 7 v 7 h -7 z m 14,0 h 7 v 7 h -7 z m 7,0 h 7 v 7 h -7 z M 7,140 h 7 v 7 H 7 Z m 35,0 h 7 v 7 h -7 z m 21,0 h 7 v 7 h -7 z m 14,0 h 7 v 7 h -7 z m 14,0 h 7 v 7 h -7 z m 7,0 h 7 v 7 h -7 z m 14,0 h 7 v 7 h -7 z m 21,0 h 7 v 7 h -7 z m 7,0 h 7 v 7 h -7 z m 7,0 h 7 v 7 h -7 z m 7,0 h 7 v 7 h -7 z m 7,0 h 7 v 7 h -7 z m 21,0 h 7 v 7 h -7 z m 14,0 h 7 v 7 h -7 z m 14,0 h 7 v 7 h -7 z m 7,0 h 7 v 7 h -7 z m 7,0 h 7 v 7 h -7 z m -196,7 h 7 v 7 h -7 z m 7,0 h 7 v 7 h -7 z m 14,0 h 7 v 7 h -7 z m 7,0 h 7 v 7 h -7 z m 21,0 h 7 v 7 h -7 z m 14,0 h 7 v 7 h -7 z m 14,0 h 7 v 7 h -7 z m 28,0 h 7 v 7 h -7 z m 14,0 h 7 v 7 h -7 z m 7,0 h 7 v 7 h -7 z m 7,0 h 7 v 7 h -7 z m 21,0 h 7 v 7 h -7 z m 14,0 h 7 v 7 h -7 z m 7,0 h 7 v 7 h -7 z m 7,0 h 7 v 7 h -7 z m 21,0 h 7 v 7 h -7 z M 7,154 h 7 v 7 H 7 Z m 7,0 h 7 v 7 h -7 z m 49,0 h 7 v 7 h -7 z m 7,0 h 7 v 7 h -7 z m 42,0 h 7 v 7 h -7 z m 14,0 h 7 v 7 h -7 z m 21,0 h 7 v 7 h -7 z m 21,0 h 7 v 7 h -7 z m 21,0 h 7 v 7 h -7 z m 7,0 h 7 v 7 h -7 z m 14,0 h 7 v 7 h -7 z m 7,0 h 7 v 7 h -7 z m 14,0 h 7 v 7 h -7 z M 7,161 h 7 v 7 H 7 Z m 28,0 h 7 v 7 h -7 z m 14,0 h 7 v 7 h -7 z m 7,0 h 7 v 7 h -7 z m 7,0 h 7 v 7 h -7 z m 21,0 h 7 v 7 h -7 z m 7,0 h 7 v 7 h -7 z m 28,0 h 7 v 7 h -7 z m 42,0 h 7 v 7 h -7 z m 14,0 h 7 v 7 h -7 z m 7,0 h 7 v 7 h -7 z m 7,0 h 7 v 7 h -7 z m 7,0 h 7 v 7 h -7 z m 7,0 h 7 v 7 h -7 z m 14,0 h 7 v 7 h -7 z m 14,0 h 7 v 7 h -7 z M 7,168 h 7 v 7 H 7 Z m 21,0 h 7 v 7 h -7 z m 14,0 h 7 v 7 h -7 z m 42,0 h 7 v 7 h -7 z m 21,0 h 7 v 7 h -7 z m 21,0 h 7 v 7 h -7 z m 7,0 h 7 v 7 h -7 z m 7,0 h 7 v 7 h -7 z m 7,0 h 7 v 7 h -7 z m 7,0 h 7 v 7 h -7 z m 35,0 h 7 v 7 h -7 z m 14,0 h 7 v 7 h -7 z m 7,0 h 7 v 7 h -7 z m 7,0 h 7 v 7 h -7 z m 14,0 h 7 v 7 h -7 z M 7,175 h 7 v 7 H 7 Z m 14,0 h 7 v 7 h -7 z m 14,0 h 7 v 7 h -7 z m 14,0 h 7 v 7 h -7 z m 7,0 h 7 v 7 h -7 z m 14,0 h 7 v 7 h -7 z m 7,0 h 7 v 7 h -7 z m 7,0 h 7 v 7 h -7 z m 35,0 h 7 v 7 h -7 z m 28,0 h 7 v 7 h -7 z m 14,0 h 7 v 7 h -7 z m 14,0 h 7 v 7 h -7 z m 7,0 h 7 v 7 h -7 z m 7,0 h 7 v 7 h -7 z m 7,0 h 7 v 7 h -7 z m 7,0 h 7 v 7 h -7 z m -140,7 h 7 v 7 h -7 z m 7,0 h 7 v 7 h -7 z m 7,0 h 7 v 7 h -7 z m 14,0 h 7 v 7 h -7 z m 7,0 h 7 v 7 h -7 z m 7,0 h 7 v 7 h -7 z m 7,0 h 7 v 7 h -7 z m 7,0 h 7 v 7 h -7 z m 7,0 h 7 v 7 h -7 z m 14,0 h 7 v 7 h -7 z m 14,0 h 7 v 7 h -7 z m 21,0 h 7 v 7 h -7 z m 28,0 h 7 v 7 h -7 z m 7,0 h 7 v 7 h -7 z m 7,0 h 7 v 7 h -7 z M 7,189 h 7 v 7 H 7 Z m 7,0 h 7 v 7 h -7 z m 7,0 h 7 v 7 h -7 z m 7,0 h 7 v 7 h -7 z m 7,0 h 7 v 7 h -7 z m 7,0 h 7 v 7 h -7 z m 7,0 h 7 v 7 h -7 z m 14,0 h 7 v 7 h -7 z m 7,0 h 7 v 7 h -7 z m 7,0 h 7 v 7 h -7 z m 21,0 h 7 v 7 h -7 z m 7,0 h 7 v 7 h -7 z m 7,0 h 7 v 7 h -7 z m 7,0 h 7 v 7 h -7 z m 35,0 h 7 v 7 h -7 z m 7,0 h 7 v 7 h -7 z m 7,0 h 7 v 7 h -7 z m 7,0 h 7 v 7 h -7 z m 14,0 h 7 v 7 h -7 z m 14,0 h 7 v 7 h -7 z m 7,0 h 7 v 7 h -7 z m 7,0 h 7 v 7 h -7 z m 7,0 h 7 v 7 h -7 z m 7,0 h 7 v 7 h -7 z M 7,196 h 7 v 7 H 7 Z m 42,0 h 7 v 7 h -7 z m 21,0 h 7 v 7 h -7 z m 7,0 h 7 v 7 h -7 z m 14,0 h 7 v 7 h -7 z m 7,0 h 7 v 7 h -7 z m 14,0 h 7 v 7 h -7 z m 42,0 h 7 v 7 h -7 z m 7,0 h 7 v 7 h -7 z m 7,0 h 7 v 7 h -7 z m 7,0 h 7 v 7 h -7 z m 28,0 h 7 v 7 h -7 z m 7,0 h 7 v 7 h -7 z m 7,0 h 7 v 7 h -7 z M 7,203 h 7 v 7 H 7 Z m 14,0 h 7 v 7 h -7 z m 7,0 h 7 v 7 h -7 z m 7,0 h 7 v 7 h -7 z m 14,0 h 7 v 7 h -7 z m 14,0 h 7 v 7 h -7 z m 7,0 h 7 v 7 h -7 z m 21,0 h 7 v 7 h -7 z m 14,0 h 7 v 7 h -7 z m 14,0 h 7 v 7 h -7 z m 14,0 h 7 v 7 h -7 z m 28,0 h 7 v 7 h -7 z m 14,0 h 7 v 7 h -7 z m 7,0 h 7 v 7 h -7 z m 7,0 h 7 v 7 h -7 z m 7,0 h 7 v 7 h -7 z m 7,0 h 7 v 7 h -7 z m 21,0 h 7 v 7 h -7 z M 7,210 h 7 v 7 H 7 Z m 14,0 h 7 v 7 h -7 z m 7,0 h 7 v 7 h -7 z m 7,0 h 7 v 7 h -7 z m 14,0 h 7 v 7 h -7 z m 14,0 h 7 v 7 h -7 z m 7,0 h 7 v 7 h -7 z m 42,0 h 7 v 7 h -7 z m 7,0 h 7 v 7 h -7 z m 7,0 h 7 v 7 h -7 z m 14,0 h 7 v 7 h -7 z m 21,0 h 7 v 7 h -7 z m 14,0 h 7 v 7 h -7 z m 21,0 h 7 v 7 h -7 z m 7,0 h 7 v 7 h -7 z m 7,0 h 7 v 7 h -7 z m 7,0 h 7 v 7 h -7 z m 14,0 h 7 v 7 h -7 z M 7,217 h 7 v 7 H 7 Z m 14,0 h 7 v 7 h -7 z m 7,0 h 7 v 7 h -7 z m 7,0 h 7 v 7 h -7 z m 14,0 h 7 v 7 h -7 z m 14,0 h 7 v 7 h -7 z m 7,0 h 7 v 7 h -7 z m 14,0 h 7 v 7 h -7 z m 7,0 h 7 v 7 h -7 z m 28,0 h 7 v 7 h -7 z m 7,0 h 7 v 7 h -7 z m 7,0 h 7 v 7 h -7 z m 21,0 h 7 v 7 h -7 z m 21,0 h 7 v 7 h -7 z m 14,0 h 7 v 7 h -7 z M 7,224 h 7 v 7 H 7 Z m 42,0 h 7 v 7 h -7 z m 14,0 h 7 v 7 h -7 z m 21,0 h 7 v 7 h -7 z m 21,0 h 7 v 7 h -7 z m 7,0 h 7 v 7 h -7 z m 21,0 h 7 v 7 h -7 z m 14,0 h 7 v 7 h -7 z m 7,0 h 7 v 7 h -7 z m 28,0 h 7 v 7 h -7 z m 7,0 h 7 v 7 h -7 z m 21,0 h 7 v 7 h -7 z m 7,0 h 7 v 7 h -7 z M 7,231 h 7 v 7 H 7 Z m 7,0 h 7 v 7 h -7 z m 7,0 h 7 v 7 h -7 z m 7,0 h 7 v 7 h -7 z m 7,0 h 7 v 7 h -7 z m 7,0 h 7 v 7 h -7 z m 7,0 h 7 v 7 h -7 z m 14,0 h 7 v 7 h -7 z m 14,0 h 7 v 7 h -7 z m 7,0 h 7 v 7 h -7 z m 35,0 h 7 v 7 h -7 z m 28,0 h 7 v 7 h -7 z m 14,0 h 7 v 7 h -7 z m 14,0 h 7 v 7 h -7 z m 21,0 h 7 v 7 h -7 z m 28,0 h 7 v 7 h -7 z"
       id="path4465" />
  </g>
</svg>
