<?xml version="1.0" encoding="UTF-8" standalone="no"?>
<svg
   width="1587.402"
   height="1122.52"
   viewBox="-60 -248.5 420 297"
   version="1.1"
   id="svg372"
   sodipodi:docname="signature_tl.svg"
   inkscape:version="1.2.2 (b0a84865, 2022-12-01)"
   inkscape:export-filename="qr1.svg"
   inkscape:export-xdpi="96"
   inkscape:export-ydpi="96"
   xmlns:inkscape="http://www.inkscape.org/namespaces/inkscape"
   xmlns:sodipodi="http://sodipodi.sourceforge.net/DTD/sodipodi-0.dtd"
   xmlns="http://www.w3.org/2000/svg"
   xmlns:svg="http://www.w3.org/2000/svg">
  <g
     aria-label="Stefan Wallin -24 HackNext Järvsö"
     transform="rotate(180,95.493629,38.063585)"
     id="text6022"
     style="font-weight:bold;font-size:4.9389px;-inkscape-font-specification:'sans-serif, Bold';stroke-width:0.264583">
    <path
       d="m 204.14172,310.21712 q -0.29662,0 -0.52089,-0.0724 -0.22187,-0.0747 -0.35933,-0.17122 l -0.13746,0.17605 h -0.19292 l 0.23633,-1.17203 h 0.19534 q 0.0121,0.20981 0.0555,0.39309 0.0458,0.18328 0.14711,0.33039 0.10129,0.15192 0.26286,0.23633 0.16158,0.082 0.40032,0.082 0.35933,0 0.57637,-0.19775 0.21704,-0.20016 0.21704,-0.54501 0,-0.18569 -0.0916,-0.33039 -0.0916,-0.14469 -0.27492,-0.22427 -0.17363,-0.0748 -0.34485,-0.13264 -0.16882,-0.0603 -0.3328,-0.13987 -0.21704,-0.1037 -0.34968,-0.29662 -0.13264,-0.19534 -0.13264,-0.43891 0,-0.23151 0.10129,-0.42685 0.1037,-0.19534 0.27251,-0.33762 0.16398,-0.13746 0.3955,-0.21945 0.23392,-0.082 0.46302,-0.082 0.21463,0 0.40514,0.0507 0.19293,0.0506 0.38585,0.19051 l 0.13264,-0.16398 h 0.19292 l -0.24356,1.13585 h -0.19534 q -0.007,-0.1857 -0.0386,-0.38344 -0.0289,-0.19775 -0.10128,-0.32798 -0.0796,-0.14228 -0.22187,-0.22186 -0.14228,-0.082 -0.37861,-0.082 -0.28457,0 -0.4775,0.19775 -0.19292,0.19534 -0.19292,0.46544 0,0.17845 0.0699,0.30385 0.0724,0.12299 0.22187,0.20016 0.15916,0.082 0.3328,0.14229 0.17604,0.0579 0.3135,0.12299 0.27733,0.13022 0.43167,0.3135 0.15675,0.18328 0.15675,0.44855 0,0.25563 -0.11093,0.4775 -0.11093,0.22186 -0.29662,0.37138 -0.19534,0.15916 -0.43891,0.24357 -0.24115,0.0844 -0.53296,0.0844 z"
       style="font-style:italic;font-weight:normal;font-family:Georgia;-inkscape-font-specification:'Georgia, Italic'"
       id="path6256" />
    <path
       d="m 206.45442,310.19783 q -0.2291,0 -0.33521,-0.0916 -0.10611,-0.0941 -0.10611,-0.26768 0,-0.0555 0.007,-0.1037 0.007,-0.0506 0.0193,-0.11335 l 0.3738,-1.61093 h -0.42926 l 0.0506,-0.21945 h 0.43891 l 0.16881,-0.70659 h 0.43408 l -0.16399,0.70659 h 0.67283 l -0.0506,0.21945 h -0.66801 l -0.30868,1.32878 q -0.0217,0.0916 -0.0362,0.17846 -0.0145,0.0844 -0.0145,0.14469 0,0.13264 0.0651,0.19534 0.0675,0.0603 0.24116,0.0603 0.0627,0 0.17604,-0.0145 0.11335,-0.0169 0.17605,-0.041 l -0.041,0.17605 q -0.16881,0.0651 -0.31833,0.11093 -0.14952,0.0482 -0.35209,0.0482 z"
       style="font-style:italic;font-weight:normal;font-family:Georgia;-inkscape-font-specification:'Georgia, Italic'"
       id="path6258" />
    <path
       d="m 209.67146,308.21552 q 0,0.25562 -0.16158,0.4389 -0.15916,0.18328 -0.46543,0.2918 -0.22428,0.082 -0.45337,0.13264 -0.2291,0.0506 -0.50643,0.0844 0,0.38103 0.13987,0.58361 0.14228,0.20016 0.41479,0.20016 0.24115,0 0.42443,-0.12058 0.18569,-0.12058 0.36415,-0.35933 l 0.13746,0.10129 q -0.19293,0.29421 -0.48231,0.47026 -0.28939,0.17604 -0.60049,0.17604 -0.42684,0 -0.65353,-0.23875 -0.22428,-0.23874 -0.22428,-0.67765 0,-0.30386 0.0941,-0.57877 0.0965,-0.27734 0.27975,-0.50643 0.17845,-0.22428 0.43649,-0.36174 0.26045,-0.13746 0.57395,-0.13746 0.34727,0 0.51367,0.14228 0.16881,0.13987 0.16881,0.35933 z m -0.44373,-0.0603 q 0,-0.0941 -0.0265,-0.14711 -0.0265,-0.0555 -0.0675,-0.082 -0.0434,-0.0289 -0.0916,-0.0362 -0.0482,-0.007 -0.0989,-0.007 -0.28939,0 -0.53537,0.31833 -0.24357,0.31833 -0.30869,0.7934 0.16881,-0.0241 0.38103,-0.0675 0.21222,-0.0458 0.35209,-0.11817 0.20016,-0.10369 0.29663,-0.26527 0.0989,-0.16399 0.0989,-0.38826 z"
       style="font-style:italic;font-weight:normal;font-family:Georgia;-inkscape-font-specification:'Georgia, Italic'"
       id="path6260" />
    <path
       d="m 210.96165,308.01053 -0.42444,1.99196 q -0.11334,0.53537 -0.47749,0.8754 -0.36414,0.34003 -0.75,0.34003 -0.21221,0 -0.31109,-0.082 -0.10128,-0.0796 -0.10128,-0.20257 0,-0.1037 0.0627,-0.18328 0.0627,-0.0796 0.18086,-0.0796 0.0748,0 0.13264,0.0338 0.0555,0.0338 0.0989,0.0844 0.0338,0.041 0.0772,0.11094 0.041,0.0699 0.0723,0.12058 0.18569,-0.0145 0.31592,-0.25081 0.13263,-0.23633 0.2291,-0.67524 l 0.44373,-2.0836 h -0.47026 l 0.0506,-0.21945 h 0.46544 l 0.0338,-0.16399 q 0.0579,-0.27974 0.18328,-0.50402 0.1254,-0.22427 0.28456,-0.38102 0.15676,-0.15434 0.35451,-0.24116 0.20016,-0.0892 0.38344,-0.0892 0.21221,0 0.31109,0.082 0.10128,0.0796 0.10128,0.20258 0,0.10369 -0.0603,0.18328 -0.0579,0.0796 -0.18327,0.0796 -0.0748,0 -0.13023,-0.0314 -0.0555,-0.0338 -0.0989,-0.0868 -0.0482,-0.0603 -0.0772,-0.11334 -0.0289,-0.0531 -0.0724,-0.11817 -0.1664,0.007 -0.29421,0.21945 -0.12782,0.21222 -0.23151,0.70659 l -0.0531,0.25563 h 0.60531 l -0.0506,0.21945 z"
       style="font-style:italic;font-weight:normal;font-family:Georgia;-inkscape-font-specification:'Georgia, Italic'"
       id="path6262" />
    <path
       d="m 213.06937,309.82886 h -0.0169 q -0.0531,0.0434 -0.12781,0.11093 -0.0724,0.0651 -0.17122,0.1254 -0.094,0.0603 -0.20498,0.1037 -0.11094,0.0458 -0.24116,0.0458 -0.34968,0 -0.54984,-0.2508 -0.19775,-0.25081 -0.19775,-0.68489 0,-0.29903 0.11093,-0.58119 0.11094,-0.28215 0.30627,-0.50643 0.18569,-0.21463 0.44132,-0.34485 0.25563,-0.13264 0.52572,-0.13264 0.17123,0 0.32557,0.0458 0.15675,0.0458 0.24598,0.1037 l 0.44131,-0.11335 0.0289,0.0362 -0.36656,1.55546 q -0.0193,0.0748 -0.041,0.18328 -0.0193,0.10611 -0.0193,0.15675 0,0.13746 0.0579,0.18569 0.0579,0.0482 0.19534,0.0482 0.0458,0 0.13022,-0.0145 0.0844,-0.0145 0.13023,-0.0313 l -0.0362,0.15434 q -0.21705,0.0868 -0.32315,0.1254 -0.10611,0.0386 -0.25804,0.0386 -0.17364,0 -0.27492,-0.10128 -0.10129,-0.10129 -0.11093,-0.25804 z m 0.34485,-1.52411 q 0,-0.0796 -0.0169,-0.15193 -0.0169,-0.0724 -0.0699,-0.13505 -0.0482,-0.0603 -0.13263,-0.0965 -0.0844,-0.0362 -0.21222,-0.0362 -0.17605,0 -0.34244,0.11576 -0.1664,0.11575 -0.29904,0.31109 -0.1254,0.18328 -0.20498,0.44373 -0.0796,0.26045 -0.0796,0.52813 0,0.14711 0.0169,0.26045 0.0169,0.11335 0.0651,0.2074 0.0458,0.0916 0.13263,0.14228 0.0868,0.0506 0.21946,0.0506 0.13505,0 0.28215,-0.0747 0.14952,-0.0772 0.33521,-0.26769 z"
       style="font-style:italic;font-weight:normal;font-family:Georgia;-inkscape-font-specification:'Georgia, Italic'"
       id="path6264" />
    <path
       d="m 216.99058,309.86744 -0.0362,0.15434 q -0.21704,0.0868 -0.33762,0.12541 -0.12058,0.041 -0.24357,0.041 -0.19293,0 -0.28939,-0.0989 -0.0965,-0.10129 -0.0965,-0.24839 0,-0.0531 0.01,-0.11576 0.01,-0.0651 0.0314,-0.15193 l 0.23634,-0.89951 q 0.0265,-0.1037 0.041,-0.18811 0.0169,-0.0844 0.0169,-0.13505 0,-0.16157 -0.0772,-0.25562 -0.0772,-0.094 -0.2291,-0.094 -0.14711,0 -0.33039,0.0965 -0.18328,0.0965 -0.34485,0.27974 l -0.40756,1.7701 h -0.44855 l 0.35932,-1.5627 q 0.0121,-0.0579 0.0338,-0.1664 0.0241,-0.11093 0.0241,-0.17846 0,-0.13505 -0.0458,-0.18087 -0.0458,-0.0458 -0.18328,-0.0458 -0.053,0 -0.13505,0.0193 -0.082,0.0169 -0.12781,0.0289 l 0.0362,-0.15434 q 0.18811,-0.0844 0.3328,-0.12541 0.14469,-0.041 0.24839,-0.041 0.19052,0 0.27251,0.10369 0.082,0.1037 0.0868,0.28698 h 0.0145 q 0.26527,-0.21222 0.45819,-0.3135 0.19293,-0.1037 0.43891,-0.1037 0.23151,0 0.36174,0.13505 0.13022,0.13263 0.13022,0.34968 0,0.0434 -0.0145,0.15434 -0.0121,0.11093 -0.041,0.21945 l -0.20258,0.77411 q -0.0217,0.0772 -0.0434,0.17846 -0.0193,0.0989 -0.0193,0.15434 0,0.13746 0.0603,0.1881 0.0603,0.0482 0.19775,0.0482 0.0458,0 0.13023,-0.0145 0.0868,-0.0169 0.13263,-0.0338 z"
       style="font-style:italic;font-weight:normal;font-family:Georgia;-inkscape-font-specification:'Georgia, Italic'"
       id="path6266" />
    <path
       d="m 223.70681,306.72517 -0.0362,0.15916 q -0.0603,0.002 -0.14711,0.0289 -0.0868,0.0241 -0.16157,0.0651 -0.0989,0.0555 -0.1664,0.12781 -0.0675,0.0723 -0.13505,0.19775 -0.24839,0.46061 -0.67524,1.26125 -0.42444,0.80065 -0.87299,1.6254 h -0.21463 l -0.27974,-2.63826 -1.49759,2.63826 h -0.21222 q -0.0555,-1.09726 -0.0941,-1.84485 -0.0386,-0.75 -0.0579,-1.13585 -0.005,-0.0772 -0.0289,-0.13022 -0.0241,-0.0531 -0.0941,-0.10852 -0.0506,-0.041 -0.13022,-0.0603 -0.0772,-0.0217 -0.13987,-0.0265 l 0.0362,-0.15916 h 1.37701 l -0.0362,0.15916 q -0.28698,0.0169 -0.38586,0.0627 -0.0965,0.0434 -0.0965,0.10611 0,0.0482 0.002,0.14228 0.002,0.094 0.007,0.19293 0.007,0.1664 0.0338,0.67283 0.0289,0.50401 0.0699,1.27089 l 1.4373,-2.55867 h 0.22187 l 0.28697,2.61414 q 0.30145,-0.57636 0.52573,-1.02251 0.22427,-0.44855 0.40032,-0.80546 0.10611,-0.21945 0.1471,-0.3328 0.0434,-0.11334 0.0434,-0.15916 0,-0.0772 -0.11093,-0.12299 -0.10852,-0.0482 -0.31592,-0.0603 l 0.0362,-0.15916 z"
       style="font-style:italic;font-weight:normal;font-family:Georgia;-inkscape-font-specification:'Georgia, Italic'"
       id="path6268" />
    <path
       d="m 224.82096,309.82886 h -0.0169 q -0.0531,0.0434 -0.12782,0.11093 -0.0724,0.0651 -0.17122,0.1254 -0.0941,0.0603 -0.20498,0.1037 -0.11094,0.0458 -0.24116,0.0458 -0.34968,0 -0.54984,-0.2508 -0.19775,-0.25081 -0.19775,-0.68489 0,-0.29903 0.11093,-0.58119 0.11094,-0.28215 0.30627,-0.50643 0.18569,-0.21463 0.44132,-0.34485 0.25563,-0.13264 0.52572,-0.13264 0.17123,0 0.32557,0.0458 0.15675,0.0458 0.24598,0.1037 l 0.44131,-0.11335 0.0289,0.0362 -0.36656,1.55546 q -0.0193,0.0748 -0.041,0.18328 -0.0193,0.10611 -0.0193,0.15675 0,0.13746 0.0579,0.18569 0.0579,0.0482 0.19534,0.0482 0.0458,0 0.13023,-0.0145 0.0844,-0.0145 0.13022,-0.0313 l -0.0362,0.15434 q -0.21704,0.0868 -0.32315,0.1254 -0.10611,0.0386 -0.25804,0.0386 -0.17364,0 -0.27492,-0.10128 -0.10129,-0.10129 -0.11093,-0.25804 z m 0.34485,-1.52411 q 0,-0.0796 -0.0169,-0.15193 -0.0169,-0.0724 -0.0699,-0.13505 -0.0482,-0.0603 -0.13263,-0.0965 -0.0844,-0.0362 -0.21222,-0.0362 -0.17605,0 -0.34244,0.11576 -0.1664,0.11575 -0.29904,0.31109 -0.1254,0.18328 -0.20498,0.44373 -0.0796,0.26045 -0.0796,0.52813 0,0.14711 0.0169,0.26045 0.0169,0.11335 0.0651,0.2074 0.0458,0.0916 0.13264,0.14228 0.0868,0.0506 0.21945,0.0506 0.13505,0 0.28215,-0.0747 0.14952,-0.0772 0.33521,-0.26769 z"
       style="font-style:italic;font-weight:normal;font-family:Georgia;-inkscape-font-specification:'Georgia, Italic'"
       id="path6270" />
    <path
       d="m 227.41822,306.45025 -0.67283,2.90353 q -0.0217,0.0916 -0.041,0.18328 -0.0193,0.0916 -0.0193,0.14952 0,0.13746 0.0603,0.1881 0.0627,0.0506 0.20016,0.0506 0.0482,0 0.14229,-0.0121 0.0965,-0.012 0.14469,-0.0289 l -0.0362,0.15435 q -0.21705,0.0868 -0.33521,0.12299 -0.11576,0.0362 -0.26286,0.0362 -0.19293,0 -0.29422,-0.0989 -0.0989,-0.10128 -0.0989,-0.24839 0,-0.0555 0.01,-0.11575 0.012,-0.0603 0.0313,-0.15193 l 0.58601,-2.53939 q 0.0169,-0.0748 0.0217,-0.10369 0.007,-0.0289 0.007,-0.0723 0,-0.0868 -0.0289,-0.13264 -0.0289,-0.0482 -0.082,-0.0723 -0.0507,-0.0217 -0.12782,-0.0289 -0.0772,-0.007 -0.15675,-0.0169 l 0.0338,-0.1471 0.89469,-0.0555 z"
       style="font-style:italic;font-weight:normal;font-family:Georgia;-inkscape-font-specification:'Georgia, Italic'"
       id="path6272" />
    <path
       d="m 228.82658,306.45025 -0.67283,2.90353 q -0.0217,0.0916 -0.041,0.18328 -0.0193,0.0916 -0.0193,0.14952 0,0.13746 0.0603,0.1881 0.0627,0.0506 0.20016,0.0506 0.0482,0 0.14228,-0.0121 0.0965,-0.012 0.1447,-0.0289 l -0.0362,0.15435 q -0.21704,0.0868 -0.3352,0.12299 -0.11576,0.0362 -0.26287,0.0362 -0.19292,0 -0.29421,-0.0989 -0.0989,-0.10128 -0.0989,-0.24839 0,-0.0555 0.01,-0.11575 0.0121,-0.0603 0.0314,-0.15193 l 0.58602,-2.53939 q 0.0169,-0.0748 0.0217,-0.10369 0.007,-0.0289 0.007,-0.0723 0,-0.0868 -0.0289,-0.13264 -0.0289,-0.0482 -0.082,-0.0723 -0.0506,-0.0217 -0.12781,-0.0289 -0.0772,-0.007 -0.15675,-0.0169 l 0.0338,-0.1471 0.89469,-0.0555 z"
       style="font-style:italic;font-weight:normal;font-family:Georgia;-inkscape-font-specification:'Georgia, Italic'"
       id="path6274" />
    <path
       d="m 230.11677,309.88432 -0.0362,0.15435 q -0.22187,0.0892 -0.35451,0.12299 -0.13263,0.0362 -0.22668,0.0362 -0.19293,0 -0.28939,-0.0989 -0.0965,-0.10128 -0.0965,-0.24839 0,-0.0555 0.01,-0.11575 0.01,-0.0603 0.0314,-0.15193 l 0.25563,-1.02492 q 0.0193,-0.0844 0.0362,-0.18087 0.0193,-0.0965 0.0193,-0.16398 0,-0.13505 -0.0458,-0.17846 -0.0434,-0.0458 -0.18086,-0.0458 -0.0531,0 -0.14229,0.0169 -0.0868,0.0169 -0.13263,0.0289 l 0.0362,-0.15434 q 0.1881,-0.0844 0.33762,-0.1254 0.14952,-0.041 0.23634,-0.041 0.19774,0 0.28697,0.094 0.0892,0.0941 0.0892,0.25322 0,0.0434 -0.01,0.11816 -0.01,0.0748 -0.0289,0.14952 l -0.25804,1.02492 q -0.0241,0.0941 -0.0434,0.18569 -0.0169,0.0892 -0.0169,0.14711 0,0.13746 0.0603,0.1881 0.0627,0.0506 0.20016,0.0506 0.0458,0 0.13022,-0.0121 0.0868,-0.012 0.13264,-0.0289 z m 0.17122,-3.08198 q 0,0.13746 -0.0892,0.24115 -0.0892,0.10129 -0.22186,0.10129 -0.12299,0 -0.21222,-0.0965 -0.0892,-0.0989 -0.0892,-0.22428 0,-0.13264 0.0892,-0.23151 0.0892,-0.0989 0.21222,-0.0989 0.13746,0 0.22427,0.0941 0.0868,0.0916 0.0868,0.21463 z"
       style="font-style:italic;font-weight:normal;font-family:Georgia;-inkscape-font-specification:'Georgia, Italic'"
       id="path6276" />
    <path
       d="m 233.02754,309.86744 -0.0362,0.15434 q -0.21704,0.0868 -0.33762,0.12541 -0.12057,0.041 -0.24356,0.041 -0.19293,0 -0.28939,-0.0989 -0.0965,-0.10129 -0.0965,-0.24839 0,-0.0531 0.01,-0.11576 0.01,-0.0651 0.0314,-0.15193 l 0.23633,-0.89951 q 0.0265,-0.1037 0.041,-0.18811 0.0169,-0.0844 0.0169,-0.13505 0,-0.16157 -0.0772,-0.25562 -0.0772,-0.094 -0.2291,-0.094 -0.1471,0 -0.33038,0.0965 -0.18328,0.0965 -0.34486,0.27974 l -0.40755,1.7701 h -0.44856 l 0.35933,-1.5627 q 0.0121,-0.0579 0.0338,-0.1664 0.0241,-0.11093 0.0241,-0.17846 0,-0.13505 -0.0458,-0.18087 -0.0458,-0.0458 -0.18328,-0.0458 -0.0531,0 -0.13505,0.0193 -0.082,0.0169 -0.12781,0.0289 l 0.0362,-0.15434 q 0.1881,-0.0844 0.3328,-0.12541 0.14469,-0.041 0.24839,-0.041 0.19051,0 0.27251,0.10369 0.082,0.1037 0.0868,0.28698 h 0.0145 q 0.26527,-0.21222 0.4582,-0.3135 0.19293,-0.1037 0.43891,-0.1037 0.23151,0 0.36173,0.13505 0.13023,0.13263 0.13023,0.34968 0,0.0434 -0.0145,0.15434 -0.0121,0.11093 -0.041,0.21945 l -0.20257,0.77411 q -0.0217,0.0772 -0.0434,0.17846 -0.0193,0.0989 -0.0193,0.15434 0,0.13746 0.0603,0.1881 0.0603,0.0482 0.19775,0.0482 0.0458,0 0.13022,-0.0145 0.0868,-0.0169 0.13264,-0.0338 z"
       style="font-style:italic;font-weight:normal;font-family:Georgia;-inkscape-font-specification:'Georgia, Italic'"
       id="path6278" />
    <path
       d="m 236.07577,308.65201 -0.0868,0.36656 h -1.4373 l 0.0868,-0.36656 z"
       style="font-style:italic;font-weight:normal;font-family:Georgia;-inkscape-font-specification:'Georgia, Italic'"
       id="path6280" />
    <path
       d="m 238.80325,308.23722 q 0,0.26527 -0.13022,0.44855 -0.13023,0.18087 -0.3545,0.30868 -0.16881,0.0965 -0.39309,0.17123 -0.22186,0.0723 -0.48955,0.15193 -0.2291,0.0675 -0.44373,0.16881 -0.21222,0.0989 -0.34968,0.24115 h 1.92203 l -0.0989,0.41962 h -2.25964 l 0.0796,-0.32798 q 0.0724,-0.0965 0.17363,-0.1881 0.10129,-0.0916 0.23875,-0.17846 0.12058,-0.0748 0.26768,-0.1471 0.14952,-0.0723 0.32316,-0.13987 0.22427,-0.0868 0.39067,-0.16881 0.16881,-0.0844 0.28457,-0.17123 0.17604,-0.13022 0.24839,-0.28215 0.0748,-0.15434 0.0748,-0.35932 0,-0.23875 -0.13023,-0.37621 -0.13022,-0.13987 -0.33762,-0.13987 -0.20016,0 -0.34003,0.0699 -0.13987,0.0699 -0.19534,0.14951 0,0.0289 0.002,0.082 0.005,0.053 0.005,0.12781 0,0.21704 -0.0844,0.32556 -0.0844,0.10611 -0.27009,0.10611 -0.13264,0 -0.1857,-0.0603 -0.0506,-0.0627 -0.0506,-0.15193 0,-0.14228 0.0868,-0.28697 0.0892,-0.14711 0.2508,-0.27251 0.15675,-0.12299 0.37621,-0.19775 0.21945,-0.0772 0.47508,-0.0772 0.40996,0 0.66077,0.20257 0.25321,0.20257 0.25321,0.55225 z"
       style="font-style:italic;font-weight:normal;font-family:Georgia;-inkscape-font-specification:'Georgia, Italic'"
       id="path6282" />
    <path
       d="m 241.62479,309.62629 -0.0724,0.30385 h -0.50643 l -0.25321,1.09727 h -0.46302 l 0.25321,-1.09727 h -1.55064 l 0.0965,-0.39549 2.13907,-2.03778 h 0.34003 l -0.49196,2.12942 z m -0.6053,-1.59164 -1.67846,1.59164 h 1.3119 z"
       style="font-style:italic;font-weight:normal;font-family:Georgia;-inkscape-font-specification:'Georgia, Italic'"
       id="path6284" />
    <path
       d="m 207.22371,312.94872 -0.0362,0.15917 q -0.0675,0.002 -0.16881,0.0217 -0.10129,0.0193 -0.15434,0.0362 -0.094,0.0314 -0.13505,0.0989 -0.041,0.0675 -0.0603,0.14469 l -0.57395,2.49116 q -0.005,0.0193 -0.007,0.0434 -0.002,0.0241 -0.002,0.041 0,0.0507 0.0217,0.0892 0.0217,0.0386 0.0699,0.0699 0.0362,0.0217 0.13023,0.0434 0.0965,0.0217 0.16398,0.0241 l -0.0362,0.15916 h -1.42042 l 0.0362,-0.15916 q 0.0603,-0.005 0.17122,-0.0145 0.11093,-0.01 0.15675,-0.0289 0.0844,-0.0313 0.13023,-0.0916 0.0458,-0.0603 0.0651,-0.14952 l 0.28456,-1.23472 h -1.60851 l -0.27734,1.2082 q -0.005,0.0193 -0.007,0.041 -0.002,0.0217 -0.002,0.041 0,0.0482 0.0217,0.0916 0.0241,0.0434 0.0699,0.0699 0.0362,0.0217 0.13022,0.0434 0.0965,0.0217 0.16399,0.0241 l -0.0362,0.15916 h -1.42042 l 0.0362,-0.15916 q 0.0603,-0.005 0.17123,-0.0145 0.11093,-0.01 0.15675,-0.0289 0.0844,-0.0313 0.13022,-0.0916 0.0458,-0.0603 0.0651,-0.14952 l 0.57636,-2.49356 q 0.005,-0.0193 0.007,-0.0386 0.002,-0.0217 0.002,-0.0434 0,-0.0531 -0.0217,-0.0916 -0.0193,-0.0386 -0.0723,-0.0675 -0.0579,-0.0314 -0.1447,-0.0555 -0.0868,-0.0241 -0.15434,-0.0289 l 0.0362,-0.15917 h 1.42042 l -0.0362,0.15917 q -0.0675,0.002 -0.16881,0.0217 -0.10129,0.0193 -0.15434,0.0362 -0.0941,0.0314 -0.13505,0.0989 -0.041,0.0675 -0.0603,0.14469 l -0.24598,1.07798 h 1.60852 l 0.24115,-1.05386 q 0.005,-0.0193 0.007,-0.0386 0.002,-0.0217 0.002,-0.041 0,-0.0531 -0.0217,-0.0916 -0.0193,-0.041 -0.0724,-0.0699 -0.0579,-0.0314 -0.14469,-0.0555 -0.0868,-0.0241 -0.15435,-0.0289 l 0.0362,-0.15917 z"
       style="font-style:italic;font-weight:normal;font-family:Georgia;-inkscape-font-specification:'Georgia, Italic'"
       id="path6286" />
    <path
       d="m 208.65619,316.05242 h -0.0169 q -0.0531,0.0434 -0.12782,0.11093 -0.0723,0.0651 -0.17122,0.1254 -0.0941,0.0603 -0.20498,0.1037 -0.11093,0.0458 -0.24116,0.0458 -0.34968,0 -0.54984,-0.25081 -0.19775,-0.2508 -0.19775,-0.68488 0,-0.29904 0.11094,-0.58119 0.11093,-0.28216 0.30627,-0.50643 0.18569,-0.21463 0.44131,-0.34486 0.25563,-0.13263 0.52573,-0.13263 0.17122,0 0.32556,0.0458 0.15675,0.0458 0.24598,0.10369 l 0.44132,-0.11334 0.0289,0.0362 -0.36656,1.55547 q -0.0193,0.0748 -0.041,0.18328 -0.0193,0.10611 -0.0193,0.15675 0,0.13746 0.0579,0.18569 0.0579,0.0482 0.19533,0.0482 0.0458,0 0.13023,-0.0145 0.0844,-0.0145 0.13022,-0.0313 l -0.0362,0.15434 q -0.21704,0.0868 -0.32315,0.12541 -0.10611,0.0386 -0.25804,0.0386 -0.17363,0 -0.27492,-0.10129 -0.10129,-0.10128 -0.11093,-0.25803 z m 0.34485,-1.52412 q 0,-0.0796 -0.0169,-0.15193 -0.0169,-0.0723 -0.0699,-0.13504 -0.0482,-0.0603 -0.13264,-0.0965 -0.0844,-0.0362 -0.21222,-0.0362 -0.17604,0 -0.34244,0.11575 -0.1664,0.11576 -0.29904,0.3111 -0.1254,0.18328 -0.20498,0.44373 -0.0796,0.26045 -0.0796,0.52813 0,0.14711 0.0169,0.26045 0.0169,0.11334 0.0651,0.2074 0.0458,0.0916 0.13264,0.14228 0.0868,0.0506 0.21945,0.0506 0.13505,0 0.28215,-0.0748 0.14952,-0.0772 0.33521,-0.26768 z"
       style="font-style:italic;font-weight:normal;font-family:Georgia;-inkscape-font-specification:'Georgia, Italic'"
       id="path6288" />
    <path
       d="m 210.87966,316.43827 q -0.42203,0 -0.66801,-0.24598 -0.24357,-0.24598 -0.24357,-0.69936 0,-0.30145 0.0916,-0.57636 0.0941,-0.27734 0.26045,-0.49197 0.1664,-0.21462 0.41962,-0.34967 0.25562,-0.13746 0.56672,-0.13746 0.34485,0 0.52331,0.1471 0.18087,0.1447 0.18087,0.36656 0,0.1664 -0.0796,0.2918 -0.0772,0.1254 -0.23392,0.1254 -0.13022,0 -0.19534,-0.0651 -0.0651,-0.0651 -0.0651,-0.14469 0,-0.0772 0.0531,-0.20981 0.0531,-0.13505 0.0844,-0.21704 -0.0265,-0.0651 -0.11817,-0.094 -0.0916,-0.0313 -0.19051,-0.0313 -0.32797,0 -0.56672,0.38344 -0.23633,0.38103 -0.23633,0.93569 0,0.34244 0.15192,0.54501 0.15435,0.20016 0.4148,0.20016 0.23392,0 0.41479,-0.1254 0.18328,-0.1254 0.34967,-0.3545 l 0.13746,0.10129 q -0.1664,0.26286 -0.45337,0.45578 -0.28457,0.19052 -0.59807,0.19052 z"
       style="font-style:italic;font-weight:normal;font-family:Georgia;-inkscape-font-specification:'Georgia, Italic'"
       id="path6290" />
    <path
       d="m 214.62965,314.21239 q 0,0.10611 -0.0844,0.19775 -0.082,0.0892 -0.20499,0.0892 -0.0796,0 -0.15675,-0.0217 -0.0772,-0.0217 -0.16881,-0.0651 -0.13263,0.0748 -0.27492,0.18569 -0.13987,0.10852 -0.30627,0.26527 0.13746,0.35691 0.23151,0.58601 0.0965,0.22669 0.16399,0.37139 0.0868,0.18086 0.19051,0.25803 0.10611,0.0748 0.23152,0.0748 0.0579,0 0.15916,-0.0169 0.10129,-0.0193 0.15675,-0.0386 l -0.0362,0.15916 q -0.22428,0.0916 -0.35209,0.12299 -0.12781,0.0314 -0.25804,0.0314 -0.15434,0 -0.26527,-0.0844 -0.10852,-0.0868 -0.20981,-0.3111 -0.0989,-0.21463 -0.17604,-0.42202 -0.0772,-0.20981 -0.15193,-0.3955 l -0.28216,0.24116 -0.20739,0.93086 h -0.44855 l 0.71623,-3.10369 q 0.0169,-0.0748 0.0217,-0.1037 0.007,-0.0289 0.007,-0.0723 0,-0.0868 -0.0289,-0.13264 -0.0289,-0.0482 -0.082,-0.0724 -0.0506,-0.0217 -0.12781,-0.0289 -0.0772,-0.007 -0.15676,-0.0169 l 0.0338,-0.1471 0.89469,-0.0555 0.0241,0.0362 -0.58842,2.51045 h 0.01 q 0.2725,-0.29421 0.49437,-0.50884 0.22428,-0.21704 0.46784,-0.44132 0.17364,-0.15916 0.27492,-0.21704 0.10129,-0.0603 0.21705,-0.0603 0.12299,0 0.19774,0.0699 0.0748,0.0675 0.0748,0.18569 z"
       style="font-style:italic;font-weight:normal;font-family:Georgia;-inkscape-font-specification:'Georgia, Italic'"
       id="path6292" />
    <path
       d="m 218.89572,312.94872 -0.0386,0.15917 q -0.0651,0.002 -0.21463,0.0386 -0.14952,0.0362 -0.21704,0.0748 -0.1037,0.0603 -0.17122,0.23151 -0.0651,0.16881 -0.12782,0.43408 l -0.58119,2.51769 h -0.21704 l -1.40353,-2.88907 -0.42926,1.86656 q -0.0289,0.1254 -0.0482,0.25321 -0.0193,0.12782 -0.0193,0.2074 0,0.0844 0.0169,0.13746 0.0169,0.0506 0.0458,0.0844 0.041,0.0507 0.20499,0.0965 0.16398,0.0458 0.21704,0.0506 l -0.0362,0.15916 h -1.40354 l 0.0362,-0.15916 q 0.0796,-0.007 0.23393,-0.0458 0.15434,-0.041 0.20498,-0.0772 0.0965,-0.0651 0.16399,-0.20981 0.0675,-0.1471 0.13987,-0.47025 l 0.38344,-1.65917 q 0.0169,-0.0796 0.0241,-0.13504 0.007,-0.0579 0.007,-0.10611 0,-0.0579 -0.0145,-0.10852 -0.0121,-0.0531 -0.0603,-0.11094 -0.0844,-0.0965 -0.2074,-0.13263 -0.12057,-0.0386 -0.21704,-0.0482 l 0.0386,-0.15917 h 0.98151 l 1.30225,2.67444 0.39308,-1.70499 q 0.0289,-0.12781 0.0482,-0.24839 0.0193,-0.12299 0.0193,-0.2098 0,-0.0796 -0.0169,-0.13264 -0.0145,-0.0555 -0.0458,-0.082 -0.0579,-0.0506 -0.19534,-0.0868 -0.13746,-0.0386 -0.22669,-0.0506 l 0.0386,-0.15917 z"
       style="font-style:italic;font-weight:normal;font-family:Georgia;-inkscape-font-specification:'Georgia, Italic'"
       id="path6294" />
    <path
       d="m 220.67546,314.43907 q 0,0.25563 -0.16157,0.43891 -0.15916,0.18328 -0.46543,0.2918 -0.22428,0.082 -0.45338,0.13264 -0.2291,0.0506 -0.50643,0.0844 0,0.38103 0.13987,0.5836 0.14228,0.20016 0.41479,0.20016 0.24116,0 0.42444,-0.12058 0.18569,-0.12057 0.36415,-0.35932 l 0.13746,0.10129 q -0.19293,0.29421 -0.48232,0.47025 -0.28939,0.17605 -0.60048,0.17605 -0.42685,0 -0.65354,-0.23875 -0.22427,-0.23874 -0.22427,-0.67765 0,-0.30386 0.0941,-0.57878 0.0965,-0.27733 0.27974,-0.50643 0.17846,-0.22427 0.4365,-0.36173 0.26045,-0.13746 0.57395,-0.13746 0.34727,0 0.51366,0.14228 0.16881,0.13987 0.16881,0.35932 z m -0.44372,-0.0603 q 0,-0.0941 -0.0265,-0.14711 -0.0265,-0.0555 -0.0675,-0.082 -0.0434,-0.0289 -0.0916,-0.0362 -0.0482,-0.007 -0.0989,-0.007 -0.28939,0 -0.53537,0.31832 -0.24357,0.31833 -0.30868,0.79341 0.16881,-0.0241 0.38103,-0.0675 0.21222,-0.0458 0.35209,-0.11817 0.20016,-0.1037 0.29662,-0.26527 0.0989,-0.16399 0.0989,-0.38826 z"
       style="font-style:italic;font-weight:normal;font-family:Georgia;-inkscape-font-specification:'Georgia, Italic'"
       id="path6296" />
    <path
       d="m 223.3499,314.20274 q -0.002,0.13987 -0.1037,0.2074 -0.0989,0.0651 -0.21704,0.0651 -0.0724,0 -0.16399,-0.0241 -0.0916,-0.0265 -0.14469,-0.0434 -0.10852,0.0965 -0.25322,0.28457 -0.14228,0.1881 -0.27009,0.41479 0.0579,0.2291 0.10369,0.39309 0.0458,0.16157 0.0989,0.32556 0.0458,0.1471 0.14228,0.23633 0.0989,0.0868 0.25804,0.0868 0.0579,0 0.15916,-0.0145 0.10129,-0.0169 0.15676,-0.0362 l -0.0434,0.15916 q -0.23151,0.0965 -0.34968,0.1254 -0.11576,0.0289 -0.2508,0.0289 -0.16881,0 -0.27975,-0.0772 -0.10852,-0.0772 -0.17604,-0.31833 -0.0482,-0.17604 -0.0796,-0.29421 -0.0289,-0.12058 -0.0579,-0.23874 -0.11093,0.16639 -0.18328,0.28456 -0.0724,0.11576 -0.24116,0.32074 -0.1471,0.17846 -0.27009,0.25321 -0.12299,0.0748 -0.25081,0.0748 -0.11334,0 -0.18569,-0.0651 -0.0748,-0.0675 -0.0748,-0.18569 0,-0.11334 0.0868,-0.19293 0.0868,-0.082 0.23874,-0.082 0.0772,0 0.14952,0.0289 0.0748,0.0265 0.15434,0.0506 0.0916,-0.0868 0.24116,-0.27009 0.15193,-0.18328 0.28215,-0.41721 -0.0458,-0.17122 -0.10128,-0.3762 -0.0531,-0.20498 -0.10129,-0.35932 -0.0627,-0.19534 -0.14469,-0.25081 -0.082,-0.0555 -0.20981,-0.0555 -0.0699,0 -0.14952,0.0193 -0.0772,0.0193 -0.14469,0.0386 l 0.0458,-0.15916 q 0.18569,-0.0772 0.3328,-0.1254 0.14951,-0.0506 0.20257,-0.0506 0.1664,0 0.27492,0.082 0.11093,0.0796 0.17604,0.31109 0.0748,0.26769 0.0868,0.32797 0.0145,0.0579 0.0531,0.23152 0.11576,-0.17846 0.18811,-0.30145 0.0723,-0.12299 0.23633,-0.32556 0.15193,-0.19052 0.27974,-0.26045 0.13023,-0.0724 0.24839,-0.0724 0.10611,0 0.17846,0.0699 0.0748,0.0675 0.0724,0.17604 z"
       style="font-style:italic;font-weight:normal;font-family:Georgia;-inkscape-font-specification:'Georgia, Italic'"
       id="path6298" />
    <path
       d="m 223.97691,316.42139 q -0.2291,0 -0.33521,-0.0916 -0.10611,-0.094 -0.10611,-0.26769 0,-0.0555 0.007,-0.1037 0.007,-0.0506 0.0193,-0.11334 l 0.37379,-1.61093 h -0.42926 l 0.0506,-0.21945 h 0.43891 l 0.16881,-0.70659 h 0.43408 l -0.16398,0.70659 h 0.67282 l -0.0506,0.21945 h -0.668 l -0.30869,1.32878 q -0.0217,0.0916 -0.0362,0.17845 -0.0145,0.0844 -0.0145,0.1447 0,0.13263 0.0651,0.19534 0.0675,0.0603 0.24116,0.0603 0.0627,0 0.17605,-0.0145 0.11334,-0.0169 0.17604,-0.041 l -0.041,0.17604 q -0.16881,0.0651 -0.31832,0.11094 -0.14952,0.0482 -0.35209,0.0482 z"
       style="font-style:italic;font-weight:normal;font-family:Georgia;-inkscape-font-specification:'Georgia, Italic'"
       id="path6300" />
    <path
       d="m 229.06774,312.94872 -0.0362,0.15917 q -0.0699,0.002 -0.17363,0.0193 -0.1037,0.0145 -0.17846,0.0386 -0.0941,0.0314 -0.13504,0.0941 -0.0386,0.0627 -0.0603,0.14951 l -0.4582,2.04019 q -0.0362,0.16158 -0.13746,0.34245 -0.0989,0.17845 -0.25563,0.32074 -0.1664,0.15192 -0.37379,0.24598 -0.2074,0.094 -0.48473,0.094 -0.33762,0 -0.54019,-0.16881 -0.20257,-0.16881 -0.20257,-0.46785 0,-0.23874 0.12058,-0.4172 0.11816,-0.17846 0.31109,-0.17846 0.14469,0 0.20498,0.0699 0.0603,0.0699 0.0603,0.16399 0,0.0844 -0.041,0.17363 -0.041,0.0892 -0.1061,0.17363 -0.0579,0.0748 -0.12782,0.15675 -0.0699,0.0796 -0.10852,0.13505 0.0362,0.0723 0.13505,0.13023 0.0989,0.0579 0.29421,0.0579 0.17605,0 0.30386,-0.0796 0.13022,-0.082 0.21463,-0.21704 0.0844,-0.13505 0.14469,-0.31833 0.0627,-0.18327 0.11335,-0.40996 l 0.40996,-1.82315 q 0.002,-0.0121 0.005,-0.0362 0.005,-0.0241 0.005,-0.0434 0,-0.0506 -0.0217,-0.0916 -0.0217,-0.041 -0.0748,-0.0699 -0.0627,-0.0386 -0.18328,-0.0579 -0.12058,-0.0217 -0.17846,-0.0265 l 0.0362,-0.15917 z"
       style="font-style:italic;font-weight:normal;font-family:Georgia;-inkscape-font-specification:'Georgia, Italic'"
       id="path6302" />
    <path
       d="m 230.38687,316.05242 h -0.0169 q -0.0531,0.0434 -0.12782,0.11093 -0.0724,0.0651 -0.17122,0.1254 -0.0941,0.0603 -0.20498,0.1037 -0.11094,0.0458 -0.24116,0.0458 -0.34968,0 -0.54984,-0.25081 -0.19775,-0.2508 -0.19775,-0.68488 0,-0.29904 0.11093,-0.58119 0.11094,-0.28216 0.30627,-0.50643 0.1857,-0.21463 0.44132,-0.34486 0.25563,-0.13263 0.52572,-0.13263 0.17123,0 0.32557,0.0458 0.15675,0.0458 0.24598,0.10369 l 0.44132,-0.11334 0.0289,0.0362 -0.36656,1.55547 q -0.0193,0.0748 -0.041,0.18328 -0.0193,0.10611 -0.0193,0.15675 0,0.13746 0.0579,0.18569 0.0579,0.0482 0.19534,0.0482 0.0458,0 0.13023,-0.0145 0.0844,-0.0145 0.13022,-0.0313 l -0.0362,0.15434 q -0.21704,0.0868 -0.32315,0.12541 -0.10611,0.0386 -0.25804,0.0386 -0.17364,0 -0.27492,-0.10129 -0.10129,-0.10128 -0.11093,-0.25803 z m 0.34485,-1.52412 q 0,-0.0796 -0.0169,-0.15193 -0.0169,-0.0723 -0.0699,-0.13504 -0.0482,-0.0603 -0.13263,-0.0965 -0.0844,-0.0362 -0.21222,-0.0362 -0.17604,0 -0.34244,0.11575 -0.1664,0.11576 -0.29904,0.3111 -0.1254,0.18328 -0.20498,0.44373 -0.0796,0.26045 -0.0796,0.52813 0,0.14711 0.0169,0.26045 0.0169,0.11334 0.0651,0.2074 0.0458,0.0916 0.13264,0.14228 0.0868,0.0506 0.21945,0.0506 0.13505,0 0.28215,-0.0748 0.14952,-0.0772 0.33521,-0.26768 z m 0.49437,-1.44694 q 0,0.12299 -0.0844,0.20981 -0.082,0.0868 -0.20016,0.0868 -0.11817,0 -0.20257,-0.0868 -0.082,-0.0868 -0.082,-0.20981 0,-0.12299 0.082,-0.20981 0.0844,-0.0868 0.20257,-0.0868 0.11817,0 0.20016,0.0868 0.0844,0.0868 0.0844,0.20981 z m -1.03697,0 q 0,0.12299 -0.0844,0.20981 -0.082,0.0868 -0.20016,0.0868 -0.11817,0 -0.20257,-0.0868 -0.082,-0.0868 -0.082,-0.20981 0,-0.12299 0.082,-0.20981 0.0844,-0.0868 0.20257,-0.0868 0.11817,0 0.20016,0.0868 0.0844,0.0868 0.0844,0.20981 z"
       style="font-style:italic;font-weight:normal;font-family:Georgia;-inkscape-font-specification:'Georgia, Italic'"
       id="path6304" />
    <path
       d="m 233.83783,314.33055 q 0,0.0675 -0.0193,0.14952 -0.0193,0.0796 -0.0555,0.13264 -0.0434,0.0651 -0.0965,0.10128 -0.0506,0.0338 -0.1471,0.0338 -0.13023,0 -0.19534,-0.0651 -0.0651,-0.0651 -0.0651,-0.14469 0,-0.0748 0.0362,-0.1664 0.0362,-0.0941 0.0748,-0.18569 -0.0289,0 -0.0965,0.0169 -0.0651,0.0145 -0.15917,0.0603 -0.0941,0.0458 -0.21463,0.13746 -0.11816,0.0916 -0.25321,0.24357 l -0.38826,1.72668 h -0.44856 l 0.35209,-1.5627 q 0.0121,-0.0579 0.0338,-0.17363 0.0241,-0.11575 0.0241,-0.17122 0,-0.13505 -0.0458,-0.18087 -0.0458,-0.0458 -0.18328,-0.0458 -0.053,0 -0.13505,0.0193 -0.082,0.0169 -0.12781,0.0289 l 0.0362,-0.15434 q 0.18811,-0.0844 0.3328,-0.1254 0.14469,-0.041 0.24839,-0.041 0.19293,0 0.27492,0.10611 0.082,0.1037 0.082,0.31351 h 0.0145 q 0.28698,-0.24839 0.43409,-0.34727 0.14951,-0.0989 0.31109,-0.0989 0.0772,0 0.14952,0.0193 0.0723,0.0193 0.12299,0.0651 0.0531,0.0507 0.0772,0.11817 0.0265,0.0651 0.0265,0.19051 z"
       style="font-style:italic;font-weight:normal;font-family:Georgia;-inkscape-font-specification:'Georgia, Italic'"
       id="path6306" />
    <path
       d="m 236.32175,314.38361 q 0,0.36656 -0.11094,0.74517 -0.11093,0.37621 -0.30385,0.65836 -0.19534,0.2918 -0.46544,0.47508 -0.27009,0.18087 -0.59325,0.18087 -0.31591,0 -0.50401,-0.17363 -0.18811,-0.17605 -0.18811,-0.47026 0,-0.0555 0.0121,-0.1254 0.0145,-0.0699 0.0193,-0.0941 l 0.20981,-0.77171 q 0.0241,-0.094 0.041,-0.18327 0.0193,-0.0916 0.0193,-0.15917 0,-0.13505 -0.0482,-0.18087 -0.0458,-0.0458 -0.18328,-0.0458 -0.0506,0 -0.13746,0.0217 -0.0868,0.0217 -0.13023,0.0338 l 0.0362,-0.15434 q 0.1881,-0.0844 0.3328,-0.13023 0.1471,-0.0458 0.23392,-0.0458 0.19292,0 0.28456,0.0892 0.0941,0.0892 0.0941,0.25804 0,0.0482 -0.01,0.11817 -0.007,0.0675 -0.0289,0.14952 l -0.23151,0.89951 q -0.0241,0.0916 -0.0362,0.17605 -0.0121,0.0844 -0.0121,0.10852 0,0.1254 0.0386,0.20498 0.041,0.0772 0.10129,0.12058 0.0579,0.041 0.1254,0.0579 0.0699,0.0169 0.14228,0.0169 0.16399,0 0.33762,-0.1037 0.17605,-0.1037 0.30627,-0.2701 0.14229,-0.18086 0.2291,-0.40273 0.0868,-0.22427 0.0868,-0.49437 0,-0.14469 -0.041,-0.22186 -0.0386,-0.0796 -0.0868,-0.13746 -0.0482,-0.0603 -0.0892,-0.12541 -0.0386,-0.0675 -0.0386,-0.1881 0,-0.13746 0.0916,-0.20981 0.0916,-0.0723 0.19293,-0.0723 0.14228,0 0.22186,0.11575 0.082,0.11335 0.082,0.33039 z"
       style="font-style:italic;font-weight:normal;font-family:Georgia;-inkscape-font-specification:'Georgia, Italic'"
       id="path6308" />
    <path
       d="m 237.34666,316.44068 q -0.35691,0 -0.59565,-0.1254 -0.23634,-0.12782 -0.23634,-0.3328 0,-0.0965 0.0699,-0.18087 0.0699,-0.0844 0.17122,-0.0844 0.0965,0 0.15434,0.0458 0.0603,0.0434 0.0941,0.1037 0.0362,0.0627 0.0627,0.14951 0.0289,0.0868 0.0482,0.14229 0.0362,0.041 0.0989,0.0772 0.0651,0.0338 0.18569,0.0338 0.26045,0 0.39308,-0.13023 0.13505,-0.13022 0.13505,-0.35209 0,-0.16398 -0.1254,-0.26045 -0.1254,-0.0989 -0.37379,-0.18086 -0.0892,-0.0289 -0.20981,-0.0868 -0.12058,-0.0603 -0.19293,-0.12781 -0.0868,-0.0772 -0.13987,-0.18328 -0.0531,-0.10611 -0.0531,-0.25081 0,-0.30868 0.27492,-0.53295 0.27733,-0.22669 0.68006,-0.22669 0.094,0 0.20257,0.01 0.10852,0.01 0.23875,0.0531 0.11334,0.0386 0.19293,0.11575 0.0796,0.0748 0.0796,0.19534 0,0.0989 -0.0675,0.18087 -0.0651,0.0796 -0.17363,0.0796 -0.0892,0 -0.14711,-0.0386 -0.0579,-0.0386 -0.0965,-0.1037 -0.0386,-0.0651 -0.0627,-0.13987 -0.0241,-0.0748 -0.053,-0.14711 -0.0458,-0.0193 -0.082,-0.0265 -0.0362,-0.007 -0.0965,-0.007 -0.23633,0 -0.35933,0.12781 -0.12057,0.1254 -0.12057,0.29904 0,0.16881 0.10852,0.25562 0.11093,0.0844 0.36414,0.17605 0.32798,0.11817 0.47508,0.27009 0.14952,0.15193 0.14952,0.37621 0,0.36656 -0.28215,0.59807 -0.28216,0.2291 -0.71142,0.2291 z"
       style="font-style:italic;font-weight:normal;font-family:Georgia;-inkscape-font-specification:'Georgia, Italic'"
       id="path6310" />
    <path
       d="m 241.09425,314.88522 q 0,0.28456 -0.0965,0.56913 -0.0965,0.28456 -0.27974,0.49919 -0.18569,0.22187 -0.44855,0.35691 -0.26045,0.13264 -0.60531,0.13264 -0.40032,0 -0.65112,-0.25804 -0.24839,-0.25804 -0.24839,-0.69453 0,-0.32074 0.10611,-0.59807 0.10611,-0.27733 0.28456,-0.48714 0.18087,-0.2098 0.44614,-0.33762 0.26769,-0.13022 0.57878,-0.13022 0.42926,0 0.67042,0.26286 0.24357,0.26045 0.24357,0.68489 z m -0.49196,-0.0916 q 0,-0.34245 -0.12299,-0.51367 -0.12058,-0.17122 -0.34968,-0.17122 -0.20016,0 -0.37862,0.12299 -0.17604,0.12299 -0.30386,0.40032 -0.0989,0.20981 -0.14469,0.46785 -0.0458,0.25562 -0.0458,0.47266 0,0.34486 0.11817,0.52331 0.12057,0.17605 0.36173,0.17605 0.21463,0 0.38103,-0.13505 0.1664,-0.13505 0.2701,-0.34244 0.10369,-0.20257 0.15916,-0.46302 0.0555,-0.26287 0.0555,-0.53778 z m 0.49196,-1.71222 q 0,0.12299 -0.0844,0.20981 -0.082,0.0868 -0.20016,0.0868 -0.11817,0 -0.20257,-0.0868 -0.082,-0.0868 -0.082,-0.20981 0,-0.12299 0.082,-0.20981 0.0844,-0.0868 0.20257,-0.0868 0.11817,0 0.20016,0.0868 0.0844,0.0868 0.0844,0.20981 z m -1.03698,0 q 0,0.12299 -0.0844,0.20981 -0.082,0.0868 -0.20017,0.0868 -0.11816,0 -0.20257,-0.0868 -0.082,-0.0868 -0.082,-0.20981 0,-0.12299 0.082,-0.20981 0.0844,-0.0868 0.20257,-0.0868 0.11817,0 0.20017,0.0868 0.0844,0.0868 0.0844,0.20981 z"
       style="font-style:italic;font-weight:normal;font-family:Georgia;-inkscape-font-specification:'Georgia, Italic'"
       id="path6312" />
  </g>
  <defs
     id="defs376" />
  <sodipodi:namedview
     id="namedview374"
     pagecolor="#ffffff"
     bordercolor="#000000"
     borderopacity="0.25"
     inkscape:showpageshadow="2"
     inkscape:pageopacity="0.0"
     inkscape:pagecheckerboard="0"
     inkscape:deskcolor="#d1d1d1"
     showgrid="false"
     inkscape:zoom="0.52730712"
     inkscape:cx="939.68008"
     inkscape:cy="727.28014"
     inkscape:window-width="2056"
     inkscape:window-height="1257"
     inkscape:window-x="0"
     inkscape:window-y="44"
     inkscape:window-maximized="0"
     inkscape:current-layer="svg372" />
</svg>
